<svg width="40" height="40" viewBox="0 0 40 40" fill="none" xmlns="http://www.w3.org/2000/svg">
<g clip-path="url(#clip0_6042_2638)">
<path d="M37.1988 0.149609C37.0488 0.149609 36.9988 0.249609 36.8988 0.299609L18.1488 13.5996C17.9488 13.7496 17.6488 14.1496 17.4988 14.3996L16.8488 15.6496C20.4488 16.7996 23.1988 19.5496 24.3488 23.1496L25.5988 22.4996C25.8488 22.3496 26.1988 22.0996 26.3988 21.8496L39.6988 3.09961C39.8488 2.84961 39.8988 2.64961 39.6988 2.44961L37.4988 0.249609C37.3988 0.149609 37.2988 0.0996094 37.1988 0.0996094V0.149609ZM13.2988 19.9996C9.59883 19.9996 6.74883 23.0496 6.74883 26.6996C6.74883 31.6496 3.99883 35.9496 0.0488281 38.2496C1.99883 39.3496 4.34883 39.9496 6.74883 39.9496C14.0988 39.9496 20.0488 34.0496 20.0488 26.6496C20.0488 22.9496 16.9988 19.9496 13.3488 19.9496L13.2988 19.9996Z" fill="white" style="fill:white;fill-opacity:1;"/>
</g>
<defs>
<clipPath id="clip0_6042_2638">
<rect width="40" height="40" fill="white" style="fill:white;fill-opacity:1;"/>
</clipPath>
</defs>
</svg>
