<svg width="18" height="18" viewBox="0 0 18 18" fill="none" xmlns="http://www.w3.org/2000/svg">
<path d="M9.00521 0.667969C4.41354 0.667969 0.671875 4.40964 0.671875 9.0013C0.671875 13.593 4.41354 17.3346 9.00521 17.3346C13.5969 17.3346 17.3385 13.593 17.3385 9.0013C17.3385 4.40964 13.5969 0.667969 9.00521 0.667969ZM12.9885 7.08464L8.26354 11.8096C8.14687 11.9263 7.98854 11.993 7.82187 11.993C7.65521 11.993 7.49687 11.9263 7.38021 11.8096L5.02187 9.4513C4.78021 9.20964 4.78021 8.80963 5.02187 8.56797C5.26354 8.3263 5.66354 8.3263 5.90521 8.56797L7.82187 10.4846L12.1052 6.2013C12.3469 5.95964 12.7469 5.95964 12.9885 6.2013C13.2302 6.44297 13.2302 6.83464 12.9885 7.08464Z" fill="#00A3CA" style="fill:#00A3CA;fill:color(display-p3 0.0000 0.6392 0.7922);fill-opacity:1;"/>
</svg>
