<svg width="32" height="32" viewBox="0 0 32 32" fill="none" xmlns="http://www.w3.org/2000/svg">
<path d="M2.7604 6.13383C3.82707 1.52049 10.7737 1.52049 11.8271 6.13383C12.4537 8.8405 10.7337 11.1338 9.2404 12.5605C8.14707 13.6005 6.42707 13.5872 5.33373 12.5605C3.85373 11.1338 2.13373 8.8405 2.7604 6.13383Z" fill="white" stroke="white" style="fill:white;fill-opacity:1;stroke:white;stroke-opacity:1;" stroke-width="1.5"/>
<path d="M20.0933 22.1338C21.16 17.5205 28.1467 17.5205 29.2133 22.1338C29.84 24.8405 28.12 27.1338 26.6133 28.5605C25.52 29.6005 23.7867 29.5872 22.6933 28.5605C21.1867 27.1338 19.4667 24.8405 20.0933 22.1338Z" fill="white" stroke="white" style="fill:white;fill-opacity:1;stroke:white;stroke-opacity:1;" stroke-width="1.5"/>
<path d="M16.0003 6.66602H19.5736C22.0403 6.66602 23.1869 9.71935 21.3336 11.346L10.6803 20.666C8.82692 22.2793 9.97358 25.3327 12.4269 25.3327H16.0003" fill="white" style="fill:white;fill-opacity:1;"/>
<path d="M16.0003 6.66602H19.5736C22.0403 6.66602 23.1869 9.71935 21.3336 11.346L10.6803 20.666C8.82692 22.2793 9.97358 25.3327 12.4269 25.3327H16.0003" stroke="white" style="stroke:white;stroke-opacity:1;" stroke-width="1.5" stroke-linecap="round" stroke-linejoin="round"/>
<path fill-rule="evenodd" clip-rule="evenodd" d="M7.31496 7.33268H7.33036H7.31496Z" fill="white" style="fill:white;fill-opacity:1;"/>
<path d="M7.31496 7.33268H7.33036" stroke="white" style="stroke:white;stroke-opacity:1;" stroke-width="2" stroke-linecap="round" stroke-linejoin="round"/>
<path fill-rule="evenodd" clip-rule="evenodd" d="M24.648 23.3327H24.6634H24.648Z" fill="white" style="fill:white;fill-opacity:1;"/>
<path d="M24.648 23.3327H24.6634" stroke="white" style="stroke:white;stroke-opacity:1;" stroke-width="2" stroke-linecap="round" stroke-linejoin="round"/>
</svg>
