<svg width="28" height="30" viewBox="0 0 28 30" fill="none" xmlns="http://www.w3.org/2000/svg">
<path d="M14.0015 0.4375C9.52085 0.4375 5.87648 4.08187 5.87648 8.5625C5.87648 13.0431 9.52085 16.6875 14.0015 16.6875C18.4821 16.6875 22.1265 13.0431 22.1265 8.5625C22.1265 4.08187 18.4821 0.4375 14.0015 0.4375ZM13.4809 2.38294L12.745 4.58581L16.004 4.24438L15.6799 3.15331L16.5939 3.40637V4.61681L18.0216 4.70994L17.7423 3.62369L18.4928 3.18906C20.0271 4.47206 21.0015 6.40106 21.0015 8.5625C21.0015 9.60425 20.7749 10.5919 20.3687 11.4795L18.7355 11.7559V13.7233C18.424 14.0091 18.0872 14.2662 17.7293 14.4914L17.0283 13.4009L15.6626 13.7734L16.0463 15.26C15.3834 15.4612 14.6943 15.5631 14.0015 15.5625C12.0632 15.5625 10.3117 14.7791 9.04541 13.5109L10.2929 13.3389L11.131 11.6938L8.46154 10.3591L10.355 8.745L8.70998 7.37938L7.02916 7.93956C7.22366 5.72406 8.44497 3.80813 10.2163 2.66969L10.5723 5.51694L13.4809 2.38294ZM15.9108 6.3965L13.6502 7.845L15.6256 9.60081L17.0523 9.18381L16.9205 10.8958L19.5324 10.2373L18.5447 7.99869L16.9645 8.02063L18.3692 6.8135L15.9109 6.3965H15.9108ZM13.5625 8.92044L12.3554 9.44713L13.2113 10.0836L13.5625 8.92044ZM10.7274 9.11756L9.88941 10.1107L12.2111 11.7424L10.7274 9.11756ZM14.4624 9.66663L13.6065 11.2689L15.6696 12.6736L14.9452 11.6419L15.8451 10.5665L14.4624 9.66663ZM1.7621 11.3788C1.21098 11.3703 0.646913 12.0721 0.643663 13.8714C0.638788 16.631 0.371413 17.4099 1.64848 20.5309C2.58491 22.8195 3.00485 24.5786 6.00148 26C6.35648 27.2514 6.21479 27.5456 5.97398 28.615C5.74923 29.6134 8.06291 29.7969 9.75735 28.9558C11.5755 27.9641 11.423 25.2335 11.0982 23.3818C10.7204 21.2284 9.53191 20.7809 8.50173 19.8611C7.43204 18.3314 7.1831 15.5603 5.44823 14.4424C5.08591 14.2089 3.2376 13.9719 5.7771 20.3137C2.42891 19.4845 3.03879 15.6404 2.79666 12.7944C2.72454 11.9468 2.24835 11.3862 1.7621 11.3787V11.3788ZM26.2408 11.3788C25.7546 11.3863 25.2784 11.9468 25.2063 12.7944C24.9642 15.6404 25.574 19.4845 22.2258 20.3137C24.7654 13.9719 22.917 14.2089 22.5547 14.4424C20.8198 15.5603 20.571 18.3314 19.5012 19.8611C18.4711 20.7809 17.2825 21.2284 16.9048 23.3818C16.58 25.2335 16.4274 27.9641 18.2456 28.9558C19.94 29.7968 22.2537 29.6134 22.0289 28.615C21.7882 27.5456 21.6465 27.2514 22.0015 26C24.9981 24.5786 25.418 22.8195 26.3545 20.5309C27.6315 17.4099 27.3642 16.631 27.3593 13.8715C27.356 12.0721 26.792 11.3703 26.2408 11.3788Z" fill="white" style="fill:white;fill-opacity:1;"/>
</svg>
