<svg width="474" height="477" viewBox="0 0 474 477" fill="none" xmlns="http://www.w3.org/2000/svg">
<path d="M267.297 100.438L260.041 0.659429C295.433 4.86697 329.023 17.0557 360.813 37.2257C392.438 57.1208 418.278 83.8343 438.335 117.366C461.022 155.296 472.689 195.339 473.335 237.495C473.817 279.377 464.483 318.734 445.333 355.565C425.764 392.273 397.502 421.68 360.547 443.784C332.512 460.553 303.182 470.82 272.558 474.583C241.679 478.498 211.475 476.599 181.946 468.885C151.997 461.049 124.318 447.751 98.9078 428.989C73.4979 410.228 52.3264 386.693 35.3932 358.383C15.3363 324.851 4.02274 289.448 1.45242 252.174C-1.28228 214.626 3.9943 179.189 17.2822 145.864L101.762 199.452C95.9235 218.618 94.2942 237.879 96.8741 257.234C99.1992 276.742 105.211 294.604 114.911 310.82C128.392 333.358 146.374 350.404 168.858 361.959C190.922 373.392 214.463 378.903 239.48 378.494C264.077 377.962 287.335 371.141 309.254 358.031C330.917 345.073 347.846 327.67 360.039 305.822C371.978 284.127 378.129 260.855 378.493 236.008C378.692 210.885 372.134 187.192 358.817 164.929C348.624 147.888 335.357 133.806 319.014 122.683C302.671 111.56 285.432 104.145 267.297 100.438Z" fill="url(#paint0_linear_6035_26465)" fill-opacity="0.6" style=""/>
<defs>
<linearGradient id="paint0_linear_6035_26465" x1="-461.863" y1="1079.53" x2="450.831" y2="138.228" gradientUnits="userSpaceOnUse">
<stop stop-color="#00A3CC" style="stop-color:#00A3CC;stop-color:color(display-p3 0.0000 0.6392 0.8000);stop-opacity:1;"/>
<stop offset="1" stop-color="#00A3CC" stop-opacity="0" style="stop-color:none;stop-opacity:0;"/>
</linearGradient>
</defs>
</svg>
