<svg width="435" height="458" viewBox="0 0 435 458" fill="none" xmlns="http://www.w3.org/2000/svg">
<path d="M303.351 60.8758C302.517 63.9849 299.181 65.9106 296.07 65.0772C292.96 64.2437 291.033 60.9077 291.866 57.7986C292.699 54.6894 296.036 52.7638 299.146 53.5972C302.257 54.4306 304.184 57.7666 303.351 60.8758Z" fill="#00A3CC" fill-opacity="0.1" style="fill:#00A3CC;fill:color(display-p3 0.0000 0.6392 0.8000);fill-opacity:0.1;"/>
<path d="M368.183 78.2498C367.349 81.3589 364.013 83.2846 360.902 82.4512C357.792 81.6178 355.865 78.2818 356.698 75.1726C357.531 72.0634 360.868 70.1378 363.978 70.9712C367.089 71.8046 369.016 75.1406 368.183 78.2498Z" fill="#00A3CC" fill-opacity="0.1" style="fill:#00A3CC;fill:color(display-p3 0.0000 0.6392 0.8000);fill-opacity:0.1;"/>
<path d="M432.788 95.5574C431.955 98.6666 428.618 100.592 425.508 99.7588C422.398 98.9254 420.471 95.5894 421.304 92.4802C422.137 89.3711 425.474 87.4454 428.584 88.2788C431.933 89.1763 433.621 92.4483 432.788 95.5574Z" fill="#00A3CC" fill-opacity="0.1" style="fill:#00A3CC;fill:color(display-p3 0.0000 0.6392 0.8000);fill-opacity:0.1;"/>
<path d="M287.456 120.189C286.623 123.298 283.286 125.224 280.176 124.391C277.066 123.557 275.139 120.221 275.972 117.112C276.805 114.003 280.142 112.077 283.252 112.911C286.362 113.744 288.289 117.08 287.456 120.189Z" fill="#00A3CC" fill-opacity="0.1" style="fill:#00A3CC;fill:color(display-p3 0.0000 0.6392 0.8000);fill-opacity:0.1;"/>
<path d="M352.288 137.563C351.455 140.672 348.118 142.598 345.008 141.765C341.898 140.931 339.971 137.595 340.804 134.486C341.637 131.377 344.974 129.451 348.084 130.285C351.194 131.118 353.121 134.454 352.288 137.563Z" fill="#00A3CC" fill-opacity="0.1" style="fill:#00A3CC;fill:color(display-p3 0.0000 0.6392 0.8000);fill-opacity:0.1;"/>
<path d="M416.893 154.871C416.06 157.98 412.724 159.906 409.613 159.072C406.503 158.239 404.576 154.903 405.409 151.794C406.242 148.685 409.579 146.759 412.689 147.592C416.039 148.49 417.727 151.762 416.893 154.871Z" fill="#00A3CC" fill-opacity="0.1" style="fill:#00A3CC;fill:color(display-p3 0.0000 0.6392 0.8000);fill-opacity:0.1;"/>
<path d="M271.495 179.741C270.662 182.851 267.325 184.776 264.215 183.943C261.104 183.109 259.178 179.773 260.011 176.664C260.844 173.555 264.18 171.629 267.291 172.463C270.465 173.057 272.392 176.393 271.495 179.741Z" fill="#00A3CC" fill-opacity="0.1" style="fill:#00A3CC;fill:color(display-p3 0.0000 0.6392 0.8000);fill-opacity:0.1;"/>
<path d="M329.063 201.317C332.234 202.167 335.493 200.286 336.343 197.116C337.192 193.946 335.31 190.687 332.139 189.837C328.967 188.988 325.708 190.869 324.858 194.039C324.009 197.209 325.891 200.468 329.063 201.317Z" fill="#00A3CC" fill-opacity="0.1" style="fill:#00A3CC;fill:color(display-p3 0.0000 0.6392 0.8000);fill-opacity:0.1;"/>
<path d="M393.656 218.625C396.828 219.475 400.087 217.594 400.936 214.424C401.786 211.254 399.904 207.995 396.732 207.145C393.561 206.295 390.302 208.176 389.452 211.346C388.603 214.517 390.485 217.775 393.656 218.625Z" fill="#00A3CC" fill-opacity="0.1" style="fill:#00A3CC;fill:color(display-p3 0.0000 0.6392 0.8000);fill-opacity:0.1;"/>
<path d="M255.601 239.054C254.767 242.164 251.431 244.089 248.32 243.256C245.21 242.422 243.283 239.086 244.116 235.977C244.949 232.868 248.286 230.942 251.396 231.776C254.507 232.609 256.498 235.706 255.601 239.054Z" fill="#00A3CC" fill-opacity="0.1" style="fill:#00A3CC;fill:color(display-p3 0.0000 0.6392 0.8000);fill-opacity:0.1;"/>
<path d="M320.444 256.428C319.611 259.538 316.274 261.463 313.164 260.63C310.054 259.796 308.127 256.46 308.96 253.351C309.793 250.242 313.13 248.317 316.24 249.15C319.35 249.983 321.341 253.08 320.444 256.428Z" fill="#00A3CC" fill-opacity="0.1" style="fill:#00A3CC;fill:color(display-p3 0.0000 0.6392 0.8000);fill-opacity:0.1;"/>
<path d="M385.038 273.737C384.205 276.846 380.868 278.772 377.758 277.938C374.648 277.105 372.721 273.769 373.554 270.66C374.387 267.551 377.724 265.625 380.834 266.459C384.183 267.356 385.935 270.389 385.038 273.737Z" fill="#00A3CC" fill-opacity="0.1" style="fill:#00A3CC;fill:color(display-p3 0.0000 0.6392 0.8000);fill-opacity:0.1;"/>
<path d="M45.4404 246.311C44.6073 249.42 41.2705 251.346 38.1602 250.513C35.0499 249.679 33.123 246.343 33.9561 243.234C34.7892 240.125 38.1259 238.199 41.2363 239.033C44.3466 239.866 46.2735 243.202 45.4404 246.311Z" fill="#00A3CC" fill-opacity="0.1" style="fill:#00A3CC;fill:color(display-p3 0.0000 0.6392 0.8000);fill-opacity:0.1;"/>
<path d="M102.996 267.887C106.167 268.736 109.427 266.855 110.276 263.685C111.126 260.515 109.243 257.257 106.072 256.407C102.901 255.557 99.6415 257.438 98.7921 260.608C97.9426 263.778 99.8249 267.037 102.996 267.887Z" fill="#00A3CC" fill-opacity="0.1" style="fill:#00A3CC;fill:color(display-p3 0.0000 0.6392 0.8000);fill-opacity:0.1;"/>
<path d="M167.598 285.195C170.769 286.045 174.028 284.164 174.878 280.994C175.727 277.824 173.845 274.565 170.674 273.715C167.502 272.866 164.243 274.747 163.394 277.917C162.544 281.087 164.426 284.346 167.598 285.195Z" fill="#00A3CC" fill-opacity="0.1" style="fill:#00A3CC;fill:color(display-p3 0.0000 0.6392 0.8000);fill-opacity:0.1;"/>
<path d="M239.71 298.368C238.877 301.477 235.54 303.403 232.43 302.569C229.319 301.736 227.393 298.4 228.226 295.291C229.059 292.182 232.395 290.256 235.506 291.089C238.616 291.923 240.543 295.259 239.71 298.368Z" fill="#00A3CC" fill-opacity="0.1" style="fill:#00A3CC;fill:color(display-p3 0.0000 0.6392 0.8000);fill-opacity:0.1;"/>
<path d="M297.273 319.943C300.445 320.793 303.704 318.912 304.554 315.742C305.403 312.572 303.521 309.313 300.35 308.463C297.178 307.614 293.919 309.495 293.069 312.665C292.22 315.835 294.102 319.094 297.273 319.943Z" fill="#00A3CC" fill-opacity="0.1" style="fill:#00A3CC;fill:color(display-p3 0.0000 0.6392 0.8000);fill-opacity:0.1;"/>
<path d="M361.867 337.251C365.039 338.101 368.298 336.22 369.147 333.05C369.997 329.879 368.115 326.621 364.943 325.771C361.772 324.921 358.513 326.802 357.663 329.972C356.814 333.143 358.696 336.401 361.867 337.251Z" fill="#00A3CC" fill-opacity="0.1" style="fill:#00A3CC;fill:color(display-p3 0.0000 0.6392 0.8000);fill-opacity:0.1;"/>
<path d="M29.5419 305.626C28.7088 308.735 25.3721 310.661 22.2618 309.827C19.1515 308.994 17.2246 305.658 18.0577 302.549C18.8908 299.439 22.2275 297.514 25.3378 298.347C28.4481 299.181 30.375 302.517 29.5419 305.626Z" fill="#00A3CC" fill-opacity="0.1" style="fill:#00A3CC;fill:color(display-p3 0.0000 0.6392 0.8000);fill-opacity:0.1;"/>
<path d="M87.0977 327.201C90.269 328.051 93.5284 326.17 94.3779 323C95.2273 319.83 93.345 316.571 90.1738 315.721C87.0025 314.871 83.743 316.752 82.8936 319.923C82.0442 323.093 83.9264 326.351 87.0977 327.201Z" fill="#00A3CC" fill-opacity="0.1" style="fill:#00A3CC;fill:color(display-p3 0.0000 0.6392 0.8000);fill-opacity:0.1;"/>
<path d="M151.699 344.51C154.871 345.359 158.13 343.478 158.979 340.308C159.829 337.138 157.947 333.88 154.775 333.03C151.604 332.18 148.345 334.061 147.495 337.231C146.646 340.401 148.528 343.66 151.699 344.51Z" fill="#00A3CC" fill-opacity="0.1" style="fill:#00A3CC;fill:color(display-p3 0.0000 0.6392 0.8000);fill-opacity:0.1;"/>
<path d="M223.819 357.682C222.986 360.792 219.649 362.717 216.539 361.884C213.429 361.05 211.502 357.714 212.335 354.605C213.168 351.496 216.505 349.57 219.615 350.404C222.725 351.237 224.652 354.573 223.819 357.682Z" fill="#00A3CC" fill-opacity="0.1" style="fill:#00A3CC;fill:color(display-p3 0.0000 0.6392 0.8000);fill-opacity:0.1;"/>
<path d="M281.383 379.258C284.554 380.108 287.814 378.227 288.663 375.056C289.512 371.886 287.63 368.628 284.459 367.778C281.288 366.928 278.028 368.809 277.179 371.979C276.329 375.149 278.212 378.408 281.383 379.258Z" fill="#00A3CC" fill-opacity="0.1" style="fill:#00A3CC;fill:color(display-p3 0.0000 0.6392 0.8000);fill-opacity:0.1;"/>
<path d="M345.977 396.565C349.148 397.415 352.407 395.534 353.257 392.364C354.106 389.194 352.224 385.935 349.053 385.085C345.881 384.236 342.622 386.117 341.773 389.287C340.923 392.457 342.805 395.716 345.977 396.565Z" fill="#00A3CC" fill-opacity="0.1" style="fill:#00A3CC;fill:color(display-p3 0.0000 0.6392 0.8000);fill-opacity:0.1;"/>
<path d="M13.6474 364.937C12.8143 368.046 9.47756 369.972 6.36724 369.139C3.25693 368.305 1.33005 364.969 2.16314 361.86C2.99624 358.751 6.33298 356.825 9.44329 357.659C12.5536 358.492 14.4805 361.828 13.6474 364.937Z" fill="#00A3CC" fill-opacity="0.1" style="fill:#00A3CC;fill:color(display-p3 0.0000 0.6392 0.8000);fill-opacity:0.1;"/>
<path d="M71.2071 386.513C74.3784 387.362 77.6378 385.481 78.4872 382.311C79.3367 379.141 77.4544 375.882 74.2831 375.033C71.1118 374.183 67.8524 376.064 67.003 379.234C66.1536 382.404 68.0358 385.663 71.2071 386.513Z" fill="#00A3CC" fill-opacity="0.1" style="fill:#00A3CC;fill:color(display-p3 0.0000 0.6392 0.8000);fill-opacity:0.1;"/>
<path d="M135.805 403.821C138.976 404.671 142.235 402.79 143.085 399.62C143.934 396.45 142.052 393.191 138.881 392.341C135.71 391.492 132.45 393.373 131.601 396.543C130.751 399.713 132.633 402.972 135.805 403.821Z" fill="#00A3CC" fill-opacity="0.1" style="fill:#00A3CC;fill:color(display-p3 0.0000 0.6392 0.8000);fill-opacity:0.1;"/>
<path d="M207.925 416.994C207.092 420.103 203.755 422.029 200.645 421.195C197.534 420.362 195.607 417.026 196.44 413.917C197.274 410.808 200.61 408.882 203.721 409.715C206.831 410.549 208.758 413.885 207.925 416.994Z" fill="#00A3CC" fill-opacity="0.1" style="fill:#00A3CC;fill:color(display-p3 0.0000 0.6392 0.8000);fill-opacity:0.1;"/>
<path d="M265.488 438.569C268.66 439.419 271.919 437.538 272.768 434.368C273.618 431.198 271.736 427.939 268.564 427.089C265.393 426.24 262.134 428.121 261.284 431.291C260.435 434.461 262.317 437.72 265.488 438.569Z" fill="#00A3CC" fill-opacity="0.1" style="fill:#00A3CC;fill:color(display-p3 0.0000 0.6392 0.8000);fill-opacity:0.1;"/>
<path d="M330.082 455.877C333.253 456.727 336.513 454.846 337.362 451.676C338.212 448.505 336.329 445.247 333.158 444.397C329.987 443.547 326.727 445.428 325.878 448.598C325.029 451.769 326.911 455.027 330.082 455.877Z" fill="#00A3CC" fill-opacity="0.1" style="fill:#00A3CC;fill:color(display-p3 0.0000 0.6392 0.8000);fill-opacity:0.1;"/>
</svg>
