<svg width="32" height="32" viewBox="0 0 32 32" fill="none" xmlns="http://www.w3.org/2000/svg">
<path d="M26.6663 12.8007C26.6663 7.46732 24.533 5.33398 19.1997 5.33398H12.7997C7.46634 5.33398 5.33301 7.46732 5.33301 12.8007V19.2006C5.33301 24.534 7.46634 26.6673 12.7997 26.6673" fill="white" style="fill:white;fill-opacity:1;"/>
<path d="M26.6663 12.8007C26.6663 7.46732 24.533 5.33398 19.1997 5.33398H12.7997C7.46634 5.33398 5.33301 7.46732 5.33301 12.8007V19.2006C5.33301 24.534 7.46634 26.6673 12.7997 26.6673" stroke="white" style="stroke:white;stroke-opacity:1;" stroke-width="1.5" stroke-linecap="round" stroke-linejoin="round"/>
<path d="M21.7997 10.6673C21.0663 9.73398 19.8397 9.33398 17.9997 9.33398H13.9997C10.6663 9.33398 9.33301 10.6673 9.33301 14.0007V18.0007C9.33301 19.8407 9.73301 21.0673 10.653 21.8007" fill="white" style="fill:white;fill-opacity:1;"/>
<path d="M21.7997 10.6673C21.0663 9.73398 19.8397 9.33398 17.9997 9.33398H13.9997C10.6663 9.33398 9.33301 10.6673 9.33301 14.0007V18.0007C9.33301 19.8407 9.73301 21.0673 10.653 21.8007" stroke="white" style="stroke:white;stroke-opacity:1;" stroke-width="1.5" stroke-linecap="round" stroke-linejoin="round"/>
<path d="M10.6797 5.33268V2.66602" stroke="white" style="stroke:white;stroke-opacity:1;" stroke-width="1.5" stroke-linecap="round" stroke-linejoin="round"/>
<path d="M16 5.33268V2.66602" stroke="white" style="stroke:white;stroke-opacity:1;" stroke-width="1.5" stroke-linecap="round" stroke-linejoin="round"/>
<path d="M21.333 5.33268V2.66602" stroke="white" style="stroke:white;stroke-opacity:1;" stroke-width="1.5" stroke-linecap="round" stroke-linejoin="round"/>
<path d="M26.667 10.666H29.3337" stroke="white" style="stroke:white;stroke-opacity:1;" stroke-width="1.5" stroke-linecap="round" stroke-linejoin="round"/>
<path d="M10.6797 26.666V29.3327" stroke="white" style="stroke:white;stroke-opacity:1;" stroke-width="1.5" stroke-linecap="round" stroke-linejoin="round"/>
<path d="M2.66699 10.666H5.33366" stroke="white" style="stroke:white;stroke-opacity:1;" stroke-width="1.5" stroke-linecap="round" stroke-linejoin="round"/>
<path d="M2.66699 16H5.33366" stroke="white" style="stroke:white;stroke-opacity:1;" stroke-width="1.5" stroke-linecap="round" stroke-linejoin="round"/>
<path d="M2.66699 21.334H5.33366" stroke="white" style="stroke:white;stroke-opacity:1;" stroke-width="1.5" stroke-linecap="round" stroke-linejoin="round"/>
<path d="M22.2802 24.7869C23.451 24.7869 24.4002 23.8377 24.4002 22.6669C24.4002 21.496 23.451 20.5469 22.2802 20.5469C21.1093 20.5469 20.1602 21.496 20.1602 22.6669C20.1602 23.8377 21.1093 24.7869 22.2802 24.7869Z" fill="white" stroke="white" style="fill:white;fill-opacity:1;stroke:white;stroke-opacity:1;" stroke-width="1.5" stroke-miterlimit="10" stroke-linecap="round" stroke-linejoin="round"/>
<path d="M15.2129 23.28V22.04C15.2129 21.3067 15.8129 20.7067 16.5462 20.7067C17.8262 20.7067 18.3462 19.8 17.7062 18.6934C17.3329 18.0534 17.5596 17.2267 18.1996 16.8667L19.4129 16.16C19.9729 15.8267 20.6929 16.0267 21.0262 16.5867L21.1062 16.72C21.7462 17.8267 22.7862 17.8267 23.4262 16.72L23.5062 16.5867C23.8396 16.0267 24.5596 15.84 25.1196 16.16L26.3329 16.8667C26.9729 17.24 27.1996 18.0534 26.8262 18.6934C26.1862 19.8 26.7062 20.7067 27.9862 20.7067C28.7196 20.7067 29.3196 21.3067 29.3196 22.04V23.28C29.3196 24.0134 28.7196 24.6134 27.9862 24.6134C26.7062 24.6134 26.1862 25.52 26.8262 26.6267C27.1996 27.2667 26.9729 28.0934 26.3329 28.4534L25.1196 29.16C24.5596 29.4934 23.8396 29.2934 23.5062 28.7334L23.4262 28.6C22.7862 27.4934 21.7462 27.4934 21.1062 28.6L21.0262 28.7334C20.6929 29.2934 19.9729 29.48 19.4129 29.16L18.1996 28.4534C17.5596 28.08 17.3329 27.2667 17.7062 26.6267C18.3462 25.52 17.8262 24.6134 16.5462 24.6134C15.8129 24.6267 15.2129 24.0267 15.2129 23.28Z" fill="white" stroke="white" style="fill:white;fill-opacity:1;stroke:white;stroke-opacity:1;" stroke-width="1.5" stroke-miterlimit="10" stroke-linecap="round" stroke-linejoin="round"/>
</svg>
