<svg width="40" height="40" viewBox="0 0 40 40" fill="none" xmlns="http://www.w3.org/2000/svg">
<mask id="mask0_6042_2623" style="mask-type:alpha" maskUnits="userSpaceOnUse" x="0" y="0" width="40" height="40">
<rect width="40" height="40" fill="white" style="fill:white;fill-opacity:1;"/>
</mask>
<g mask="url(#mask0_6042_2623)">
<path d="M25.7301 12.2229V6.88954H12.9301V12.2229H9.73008V3.33398H28.9301V12.2229H25.7301ZM28.9301 20.2229C29.3834 20.2229 29.7634 20.0525 30.0701 19.7118C30.3767 19.371 30.5301 18.9488 30.5301 18.4451C30.5301 17.9414 30.3767 17.5192 30.0701 17.1784C29.7634 16.8377 29.3834 16.6673 28.9301 16.6673C28.4767 16.6673 28.0967 16.8377 27.7901 17.1784C27.4834 17.5192 27.3301 17.9414 27.3301 18.4451C27.3301 18.9488 27.4834 19.371 27.7901 19.7118C28.0967 20.0525 28.4767 20.2229 28.9301 20.2229ZM25.7301 31.7784V24.6673H12.9301V31.7784H25.7301ZM28.9301 35.334H9.73008V28.2229H3.33008V17.5562C3.33008 16.0451 3.79674 14.7784 4.73008 13.7562C5.66341 12.734 6.79674 12.2229 8.13008 12.2229H30.5301C31.8901 12.2229 33.0301 12.734 33.9501 13.7562C34.8701 14.7784 35.3301 16.0451 35.3301 17.5562V28.2229H28.9301V35.334ZM32.1301 24.6673V17.5562C32.1301 17.0525 31.9767 16.6303 31.6701 16.2895C31.3634 15.9488 30.9834 15.7784 30.5301 15.7784H8.13008C7.67674 15.7784 7.29675 15.9488 6.99008 16.2895C6.68341 16.6303 6.53008 17.0525 6.53008 17.5562V24.6673H9.73008V21.1118H28.9301V24.6673H32.1301Z" fill="white" style="fill:white;fill-opacity:1;"/>
</g>
</svg>
