<svg width="32" height="30" viewBox="0 0 32 30" fill="none" xmlns="http://www.w3.org/2000/svg">
<path fill-rule="evenodd" clip-rule="evenodd" d="M18.962 0.570312H24.3654C25.2203 0.570312 25.9105 1.18746 25.9105 1.94631V15.624H6.05226L5.83055 15.6263V1.94631C5.83055 1.18517 6.52084 0.570312 7.37569 0.570312H12.7814V7.45946C12.7814 7.64231 12.8637 7.81603 13.01 7.94631C13.1609 8.07716 13.3542 8.14865 13.554 8.14746H18.1894C18.3899 8.14921 18.5842 8.07768 18.7357 7.94631C18.8057 7.8858 18.8621 7.81111 18.9011 7.72719C18.9401 7.64326 18.9609 7.552 18.962 7.45946V0.570312ZM6.05226 18.4789H25.9563C27.4204 18.5085 28.8145 19.1109 29.8395 20.1568C30.8645 21.2027 31.4386 22.6088 31.4386 24.0732C31.4386 25.5376 30.8645 26.9436 29.8395 27.9895C28.8145 29.0355 27.4204 29.6379 25.9563 29.6675H6.05226C5.3081 29.6825 4.56841 29.5489 3.87651 29.2745C3.18461 29.0002 2.5544 28.5905 2.0228 28.0695C1.49119 27.5485 1.06887 26.9268 0.780562 26.2405C0.492253 25.5543 0.34375 24.8175 0.34375 24.0732C0.34375 23.3288 0.492253 22.592 0.780562 21.9058C1.06887 21.2196 1.49119 20.5978 2.0228 20.0768C2.5544 19.5559 3.18461 19.1462 3.87651 18.8718C4.56841 18.5974 5.3081 18.4638 6.05226 18.4789ZM10.0774 24.056C10.0774 24.5865 9.86669 25.0952 9.49162 25.4702C9.11655 25.8453 8.60784 26.056 8.07741 26.056C7.54697 26.056 7.03827 25.8453 6.66319 25.4702C6.28812 25.0952 6.07741 24.5865 6.07741 24.056C6.07741 23.5256 6.28812 23.0169 6.66319 22.6418C7.03827 22.2667 7.54697 22.056 8.07741 22.056C8.60784 22.056 9.11655 22.2667 9.49162 22.6418C9.86669 23.0169 10.0774 23.5256 10.0774 24.056ZM18.0157 24.056C18.0157 24.5865 17.805 25.0952 17.4299 25.4702C17.0548 25.8453 16.5461 26.056 16.0157 26.056C15.4853 26.056 14.9766 25.8453 14.6015 25.4702C14.2264 25.0952 14.0157 24.5865 14.0157 24.056C14.0157 23.5256 14.2264 23.0169 14.6015 22.6418C14.9766 22.2667 15.4853 22.056 16.0157 22.056C16.5461 22.056 17.0548 22.2667 17.4299 22.6418C17.805 23.0169 18.0157 23.5256 18.0157 24.056ZM23.9517 26.0537C24.4821 26.0537 24.9908 25.843 25.3659 25.468C25.741 25.0929 25.9517 24.5842 25.9517 24.0537C25.9517 23.5233 25.741 23.0146 25.3659 22.6395C24.9908 22.2645 24.4821 22.0537 23.9517 22.0537C23.4213 22.0537 22.9126 22.2645 22.5375 22.6395C22.1624 23.0146 21.9517 23.5233 21.9517 24.0537C21.9517 24.5842 22.1624 25.0929 22.5375 25.468C22.9126 25.843 23.4213 26.0537 23.9517 26.0537Z" fill="white" style="fill:white;fill-opacity:1;"/>
</svg>
