<svg width="20" height="34" viewBox="0 0 20 34" fill="none" xmlns="http://www.w3.org/2000/svg">
<path d="M10 33.6654C7.05556 33.6654 4.65278 33.2001 2.79167 32.2695C0.930556 31.339 0 30.1376 0 28.6654C0 27.6931 0.402778 26.8459 1.20833 26.1237C2.01389 25.4015 3.125 24.832 4.54167 24.4154L5.5 27.582C5.02778 27.7209 4.59722 27.8945 4.20833 28.1029C3.81944 28.3112 3.55556 28.4987 3.41667 28.6654C3.77778 29.1098 4.61111 29.4987 5.91667 29.832C7.22222 30.1654 8.58333 30.332 10 30.332C11.4167 30.332 12.7847 30.1654 14.1042 29.832C15.4236 29.4987 16.2639 29.1098 16.625 28.6654C16.4861 28.4987 16.2222 28.3112 15.8333 28.1029C15.4444 27.8945 15.0139 27.7209 14.5417 27.582L15.5 24.4154C16.9167 24.832 18.0208 25.4015 18.8125 26.1237C19.6042 26.8459 20 27.6931 20 28.6654C20 30.1376 19.0694 31.339 17.2083 32.2695C15.3472 33.2001 12.9444 33.6654 10 33.6654ZM10 22.5404C10.5 21.6237 11.0278 20.7834 11.5833 20.0195C12.1389 19.2556 12.6806 18.5265 13.2083 17.832C14.2361 16.4987 15.0556 15.2973 15.6667 14.2279C16.2778 13.1584 16.5833 11.832 16.5833 10.2487C16.5833 8.41536 15.9444 6.85981 14.6667 5.58203C13.3889 4.30425 11.8333 3.66536 10 3.66536C8.16667 3.66536 6.61111 4.30425 5.33333 5.58203C4.05556 6.85981 3.41667 8.41536 3.41667 10.2487C3.41667 11.832 3.72222 13.1584 4.33333 14.2279C4.94444 15.2973 5.76389 16.4987 6.79167 17.832C7.31944 18.5265 7.86111 19.2556 8.41667 20.0195C8.97222 20.7834 9.5 21.6237 10 22.5404ZM10 28.6654C9.69444 28.6654 9.41667 28.5751 9.16667 28.3945C8.91667 28.214 8.73611 27.9709 8.625 27.6654C7.98611 25.6931 7.18056 24.0404 6.20833 22.707C5.23611 21.3737 4.29167 20.0959 3.375 18.8737C2.48611 17.6515 1.71528 16.3876 1.0625 15.082C0.409722 13.7765 0.0833333 12.1654 0.0833333 10.2487C0.0833333 7.47092 1.04167 5.1237 2.95833 3.20703C4.875 1.29036 7.22222 0.332031 10 0.332031C12.7778 0.332031 15.125 1.29036 17.0417 3.20703C18.9583 5.1237 19.9167 7.47092 19.9167 10.2487C19.9167 12.1654 19.5972 13.7765 18.9583 15.082C18.3194 16.3876 17.5417 17.6515 16.625 18.8737C15.7361 20.0959 14.7986 21.3737 13.8125 22.707C12.8264 24.0404 12.0139 25.6931 11.375 27.6654C11.2639 27.9709 11.0833 28.214 10.8333 28.3945C10.5833 28.5751 10.3056 28.6654 10 28.6654ZM10 13.7904C10.9722 13.7904 11.8056 13.4431 12.5 12.7487C13.1944 12.0543 13.5417 11.2209 13.5417 10.2487C13.5417 9.27648 13.1944 8.44314 12.5 7.7487C11.8056 7.05425 10.9722 6.70703 10 6.70703C9.02778 6.70703 8.19444 7.05425 7.5 7.7487C6.80556 8.44314 6.45833 9.27648 6.45833 10.2487C6.45833 11.2209 6.80556 12.0543 7.5 12.7487C8.19444 13.4431 9.02778 13.7904 10 13.7904Z" fill="white" style="fill:white;fill-opacity:1;"/>
</svg>
