<svg width="28" height="22" viewBox="0 0 28 22" fill="none" xmlns="http://www.w3.org/2000/svg">
<path d="M3.33464 21.6673C2.6013 21.6673 1.97352 21.4062 1.4513 20.884C0.92908 20.3618 0.667969 19.734 0.667969 19.0007V3.00065C0.667969 2.26732 0.92908 1.63954 1.4513 1.11732C1.97352 0.595096 2.6013 0.333984 3.33464 0.333984H24.668C25.4013 0.333984 26.0291 0.595096 26.5513 1.11732C27.0735 1.63954 27.3346 2.26732 27.3346 3.00065V19.0007C27.3346 19.734 27.0735 20.3618 26.5513 20.884C26.0291 21.4062 25.4013 21.6673 24.668 21.6673H3.33464ZM14.0013 12.334L3.33464 5.66732V19.0007H24.668V5.66732L14.0013 12.334ZM14.0013 9.66732L24.668 3.00065H3.33464L14.0013 9.66732ZM3.33464 5.66732V3.00065V19.0007V5.66732Z" fill="white" style="fill:white;fill-opacity:1;"/>
</svg>
